<svg xmlns="http://www.w3.org/2000/svg" width="144" height="37" fill="none"><path fill="#00A2C2" d="M111.798 9.73a2.53 2.53 0 0 0-1.557-.652h-9.389l.646.652 8.706 8.775a.909.909 0 0 0 1.284 0l3.871-3.892a.923.923 0 0 0 0-1.294l-3.561-3.59ZM123.719 21.745a.924.924 0 0 1 0-1.294l1.293-1.304 1.284-1.294L143.363.652c.355-.358.646-.652.637-.652h-9.38a2.528 2.528 0 0 0-1.557.652l-14.489 14.603-1.293 1.267-1.503 1.505-1.284 1.34-1.102 1.084-1.293 1.294-1.412 1.422-1.284 1.304-11.766 11.877L97 37h9.389a2.492 2.492 0 0 0 1.548-.642l9.344-9.418a.9.9 0 0 1 .997-.201.911.911 0 0 1 .296.201l5.464 5.507c.427.39.973.62 1.548.652h8.488c.501 0 .619-.294.264-.652l-8.324-8.39-1.284-1.293-1.011-1.02ZM80.001 11.74a.71.71 0 0 1 .22-.53.713.713 0 0 1 .53-.21h4.708a.72.72 0 0 1 .53.21.715.715 0 0 1 .22.53v12.537a4.525 4.525 0 0 0 .388 1.994c.228.483.562.909.978 1.246.371.286.793.502 1.244.636a3.996 3.996 0 0 0 2.39 0c.446-.13.863-.346 1.225-.636a3.64 3.64 0 0 0 .96-1.245 4.397 4.397 0 0 0 .398-1.995V11.74a.706.706 0 0 1 .22-.532.714.714 0 0 1 .53-.209h4.708a.754.754 0 0 1 .529.21.748.748 0 0 1 .22.53v12.537a10.963 10.963 0 0 1-.705 3.998 8.65 8.65 0 0 1-2.02 3.067 9.127 9.127 0 0 1-3.165 1.96 11.347 11.347 0 0 1-4.091.697 11.364 11.364 0 0 1-4.1-.697 9.127 9.127 0 0 1-3.166-1.96 8.79 8.79 0 0 1-2.028-3.067 10.6 10.6 0 0 1-.723-3.998V11.74ZM78 28.973v4.273c0 .21-.073.387-.218.534a.715.715 0 0 1-.528.22H61.746a.753.753 0 0 1-.56-.22.798.798 0 0 1-.186-.534V11.754c0-.21.062-.387.187-.534a.753.753 0 0 1 .559-.22h4.662c.207 0 .383.073.528.22a.732.732 0 0 1 .218.534v15.71c0 .21.062.388.186.535.145.146.331.22.56.22h9.354c.207 0 .383.073.528.22a.731.731 0 0 1 .218.534Z"/><path fill="#fff" d="M58 11.74a.728.728 0 0 0-.205-.53.696.696 0 0 0-.52-.21h-4.558a.687.687 0 0 0-.515.212.718.718 0 0 0-.201.529V33.234a.746.746 0 0 0 .197.54.716.716 0 0 0 .519.226h4.55a.72.72 0 0 0 .724-.749V22.735l.008-10.994ZM48.996 11.784v21.432a.918.918 0 0 1-.265.523.943.943 0 0 1-.53.261h-4.775a.943.943 0 0 1-.531-.261.919.919 0 0 1-.265-.523V23.11c0-.174-.089-.349-.265-.349a.491.491 0 0 0-.443.262L36.53 31.56a.661.661 0 0 1-.53.261.67.67 0 0 1-.531-.261l-5.394-8.538a.482.482 0 0 0-.442-.262c-.177 0-.266.175-.266.349v10.106a.918.918 0 0 1-.265.523.943.943 0 0 1-.53.261h-4.775a.943.943 0 0 1-.53-.261.918.918 0 0 1-.266-.523V11.784a.918.918 0 0 1 .265-.523.943.943 0 0 1 .53-.261h4.422c.243.027.48.085.707.174a.89.89 0 0 1 .53.436l6.19 8.886a.5.5 0 0 0 .443.258.51.51 0 0 0 .442-.258l6.127-8.886a.872.872 0 0 1 .53-.436c.224-.098.464-.157.708-.174h4.421a.769.769 0 0 1 .531.261c.116.15.17.336.15.523ZM.001 11.74a.707.707 0 0 1 .22-.53.713.713 0 0 1 .53-.21h4.708a.721.721 0 0 1 .53.21.715.715 0 0 1 .22.53v12.537a4.525 4.525 0 0 0 .388 1.994c.228.483.562.909.978 1.246.371.286.793.502 1.244.636a3.996 3.996 0 0 0 2.39 0c.446-.13.863-.346 1.225-.636a3.64 3.64 0 0 0 .96-1.245 4.397 4.397 0 0 0 .398-1.995V11.74a.706.706 0 0 1 .22-.532.714.714 0 0 1 .53-.209h4.708a.754.754 0 0 1 .529.21.748.748 0 0 1 .22.53v12.537a10.953 10.953 0 0 1-.705 3.998 8.65 8.65 0 0 1-2.02 3.067 9.127 9.127 0 0 1-3.165 1.96 11.347 11.347 0 0 1-4.091.697 11.364 11.364 0 0 1-4.1-.697 9.126 9.126 0 0 1-3.166-1.96 8.789 8.789 0 0 1-2.028-3.067 10.6 10.6 0 0 1-.723-3.998V11.74Z"/></svg>